<svg id="aac5d05e-f391-41df-9a12-f13723679f7f" data-name="Layer 1" xmlns="http://www.w3.org/2000/svg" viewBox="0 0 135.2 29.46"><defs><style>.fd9c48ad-b9e0-4f97-9e8e-cae62f25421a{fill:#fff;}.e4739e92-40cf-4de4-9dd0-480c81048a10{fill:#0bba48;}</style></defs><path class="fd9c48ad-b9e0-4f97-9e8e-cae62f25421a" d="M1.55,29.25A1.47,1.47,0,0,1,0,27.86V2.7A1.47,1.47,0,0,1,.4,1.57a1.51,1.51,0,0,1,1.12-.44h7.2A9.43,9.43,0,0,1,13.45,2.3,8.17,8.17,0,0,1,16.7,5.54a9.83,9.83,0,0,1,1.16,4.81A9.24,9.24,0,0,1,16.7,15a8.29,8.29,0,0,1-3.22,3.24,9.43,9.43,0,0,1-4.73,1.17H3.1v8.31a1.51,1.51,0,0,1-.44,1.12A1.47,1.47,0,0,1,1.55,29.25ZM3.1,16.43H8.75a6.31,6.31,0,0,0,3.15-.77,5.72,5.72,0,0,0,2.18-2.16,6.3,6.3,0,0,0,.79-3.15,6.59,6.59,0,0,0-.78-3.28,5.76,5.76,0,0,0-2.17-2.21,6.19,6.19,0,0,0-3.17-.81H3.1Z" transform="translate(0 0)"/><path class="fd9c48ad-b9e0-4f97-9e8e-cae62f25421a" d="M23.29,29.25A1.39,1.39,0,0,1,21.78,28a1,1,0,0,1,0-.25V11.07A1.37,1.37,0,0,1,23,9.56h.3a1.46,1.46,0,0,1,1.1.39,1.58,1.58,0,0,1,.38,1.12V27.74a1.56,1.56,0,0,1-.37,1.11A1.43,1.43,0,0,1,23.29,29.25Zm-.18-12.2a8,8,0,0,1,1.14-4,7.77,7.77,0,0,1,2.8-2.75,7.59,7.59,0,0,1,3.84-1,5.83,5.83,0,0,1,2.79.54,1.22,1.22,0,0,1,.7,1.48,1.11,1.11,0,0,1-.45.72,1.46,1.46,0,0,1-.79.21,8.4,8.4,0,0,1-1-.07,8.85,8.85,0,0,0-3.76.27,5.43,5.43,0,0,0-2.64,1.8,4.35,4.35,0,0,0-1,2.85Z" transform="translate(0 0)"/><path class="e4739e92-40cf-4de4-9dd0-480c81048a10" d="M47.56,29.43a10,10,0,0,1-5.16-1.3,9.55,9.55,0,0,1-3.55-3.56,10.19,10.19,0,0,1-1.29-5.15,10.35,10.35,0,0,1,1.28-5.17,9.56,9.56,0,0,1,3.56-3.58,10.16,10.16,0,0,1,5.17-1.29,10,10,0,0,1,5.11,1.29,9.6,9.6,0,0,1,3.52,3.58,10.57,10.57,0,0,1,1.33,5.18,10.2,10.2,0,0,1-1.3,5.15,9.31,9.31,0,0,1-3.54,3.56A10,10,0,0,1,47.56,29.43Zm0-2.74a6.73,6.73,0,0,0,6.08-3.54,7.7,7.7,0,0,0,.9-3.73,7.74,7.74,0,0,0-.9-3.74,6.69,6.69,0,0,0-2.48-2.61,6.81,6.81,0,0,0-3.6-1,6.88,6.88,0,0,0-3.62,1,6.71,6.71,0,0,0-2.54,2.61,7.62,7.62,0,0,0-.92,3.74,7.58,7.58,0,0,0,.92,3.73,6.86,6.86,0,0,0,6.14,3.54Z" transform="translate(0 0)"/><path class="e4739e92-40cf-4de4-9dd0-480c81048a10" d="M72.86,29.43a9.66,9.66,0,0,1-8.58-4.88,10,10,0,0,1-1.35-5.06V2.68a1.57,1.57,0,0,1,.41-1.13,1.56,1.56,0,0,1,1.14-.42,1.43,1.43,0,0,1,1.09.42A1.52,1.52,0,0,1,66,2.68V13a8.76,8.76,0,0,1,3.09-2.61,9.08,9.08,0,0,1,4.25-1,9.29,9.29,0,0,1,4.9,1.31,9.48,9.48,0,0,1,3.4,3.57,10.5,10.5,0,0,1,1.24,5.12,10.07,10.07,0,0,1-1.31,5.14A9.68,9.68,0,0,1,78,28.1,9.93,9.93,0,0,1,72.86,29.43Zm0-2.74a6.79,6.79,0,0,0,3.62-1A7,7,0,0,0,79,23.08a7.54,7.54,0,0,0,.92-3.72A7.51,7.51,0,0,0,79,15.65,6.79,6.79,0,0,0,76.48,13a6.91,6.91,0,0,0-7.16,0,6.54,6.54,0,0,0-2.5,2.61,7.62,7.62,0,0,0-.9,3.71,7.63,7.63,0,0,0,.9,3.72,6.81,6.81,0,0,0,2.5,2.61A6.7,6.7,0,0,0,72.86,26.69Z" transform="translate(0 0)"/><path class="fd9c48ad-b9e0-4f97-9e8e-cae62f25421a" d="M90.4,6a2,2,0,0,1-1.48-.63,2,2,0,0,1-.61-1.49,1.9,1.9,0,0,1,.63-1.48,2.15,2.15,0,0,1,2.92,0,1.9,1.9,0,0,1,.63,1.48,2.08,2.08,0,0,1-.62,1.49A2,2,0,0,1,90.4,6Zm0,23.26a1.6,1.6,0,0,1-1.12-.41,1.51,1.51,0,0,1-.43-1.14V11.11A1.51,1.51,0,0,1,89.28,10a1.6,1.6,0,0,1,1.12-.41,1.47,1.47,0,0,1,1.09.41,1.56,1.56,0,0,1,.42,1.14V27.7a1.56,1.56,0,0,1-.42,1.14A1.47,1.47,0,0,1,90.4,29.25Z" transform="translate(0 0)"/><path class="fd9c48ad-b9e0-4f97-9e8e-cae62f25421a" d="M100.4,29.25a1.51,1.51,0,0,1-1.07-.41,1.47,1.47,0,0,1-.41-1.07V2.61a1.52,1.52,0,0,1,2.57-1.06,1.44,1.44,0,0,1,.42,1.06V27.77a1.42,1.42,0,0,1-1.51,1.48Zm1.15-6.77-1.84-2L111.6,9.7a1.26,1.26,0,0,1,1-.39,1.39,1.39,0,0,1,1,.5,1.29,1.29,0,0,1,.4,1,1.46,1.46,0,0,1-.5.95Zm12,6.59a1.38,1.38,0,0,1-1.06.38,1.33,1.33,0,0,1-1-.56l-7.78-9.64,2.13-2L113.76,27a1.45,1.45,0,0,1,.36,1,1.41,1.41,0,0,1-.58,1.06Z" transform="translate(0 0)"/><path class="fd9c48ad-b9e0-4f97-9e8e-cae62f25421a" d="M126.68,29.43a10.57,10.57,0,0,1-5.22-1.28,9.24,9.24,0,0,1-3.56-3.54,10.24,10.24,0,0,1-1.3-5.19,10.69,10.69,0,0,1,1.23-5.2,9.24,9.24,0,0,1,3.36-3.55,9.43,9.43,0,0,1,5-1.29A9,9,0,0,1,131,10.62a8.34,8.34,0,0,1,3.14,3.44,11.08,11.08,0,0,1,1.09,5,1.3,1.3,0,0,1-.39,1,1.42,1.42,0,0,1-1,.38h-15V18H134L132.4,19a7.85,7.85,0,0,0-.72-3.57A5.84,5.84,0,0,0,129.52,13a6.07,6.07,0,0,0-3.35-.9,6.7,6.7,0,0,0-3.58.93,6.15,6.15,0,0,0-2.34,2.61,8.75,8.75,0,0,0-.81,3.8,7.45,7.45,0,0,0,1,3.83A6.66,6.66,0,0,0,123,25.84a7.4,7.4,0,0,0,3.76.94,7.7,7.7,0,0,0,2.51-.43,6.06,6.06,0,0,0,2-1.08,1.65,1.65,0,0,1,1-.34,1.24,1.24,0,0,1,.92.3,1.42,1.42,0,0,1,.56,1,1.14,1.14,0,0,1-.49.94,9.37,9.37,0,0,1-3,1.65A10.73,10.73,0,0,1,126.68,29.43Z" transform="translate(0 0)"/><path id="ed8d8706-efeb-49cd-83b1-e8bae8957d77" data-name="Rectangle 34" class="e4739e92-40cf-4de4-9dd0-480c81048a10" d="M55.06,13l8.69-2.33a1.5,1.5,0,0,1,1.84,1.06h0a1.51,1.51,0,0,1-1.06,1.84l-8.7,2.33a1.5,1.5,0,0,1-1.83-1v0h0a1.5,1.5,0,0,1,1-1.83Z" transform="translate(0 0)"/><path id="f2150cb8-a7f1-4397-acfb-c19657420a39" data-name="Rectangle 35" class="e4739e92-40cf-4de4-9dd0-480c81048a10" d="M59.74,0l4.92.87a1.5,1.5,0,0,1,1.22,1.73h0a1.51,1.51,0,0,1-1.74,1.22L59.22,3A1.5,1.5,0,0,1,58,1.25h0A1.5,1.5,0,0,1,59.73,0Z" transform="translate(0 0)"/></svg>